<svg xmlns="http://www.w3.org/2000/svg" viewBox="0 0 420 420">
  <defs>
    <linearGradient id="g" x1="0" y1="0" x2="1" y2="1">
      <stop offset="0" stop-color="#ecd58d"/>
      <stop offset=".55" stop-color="#c7a36d"/>
      <stop offset="1" stop-color="#2b4053"/>
    </linearGradient>
  </defs>
  <rect width="420" height="420" fill="url(#g)"/>
  <path d="M0 286c82-23 164-21 246-2 76 17 128 9 174-15v151H0Z" fill="#6d4c39"/>
  <path d="M38 330c52-38 112-39 180-6 41 20 84 24 150 11" fill="none" stroke="#2a211c" stroke-width="8" stroke-linecap="round"/>
  <ellipse cx="189" cy="226" rx="76" ry="28" fill="#cabf9b" transform="rotate(-9 189 226)"/>
  <path d="M122 204c65 0 108 10 151-36 12 61-36 102-104 95-48-5-76-20-47-59Z" fill="#d8d0b7"/>
  <path d="M261 111c24 88 18 150-18 186" fill="none" stroke="#2a211c" stroke-width="9" stroke-linecap="round"/>
  <path d="M267 120c32 6 54 20 73 43" fill="none" stroke="#2a211c" stroke-width="7" stroke-linecap="round"/>
  <circle cx="85" cy="300" r="22" fill="#2b4053"/>
</svg>
