<svg xmlns="http://www.w3.org/2000/svg" viewBox="0 0 420 420">
  <defs>
    <linearGradient id="bg" x1="0" y1="0" x2="1" y2="1">
      <stop offset="0" stop-color="#151c23"/>
      <stop offset=".55" stop-color="#1f2a34"/>
      <stop offset="1" stop-color="#433a30"/>
    </linearGradient>
  </defs>
  <rect width="420" height="420" fill="url(#bg)"/>
  <path d="M145 127c28-54 105-67 151-19 34 35 34 104 4 149-28 42-72 67-116 50-54-21-83-96-39-180Z" fill="#d8c7ae"/>
  <path d="M140 126c29-58 106-76 156-30-46 3-83 17-119 47Z" fill="#eadb8c"/>
  <path d="M168 98c30-38 82-49 134-16 12 8 22 20 29 34-62-10-110 0-163 28Z" fill="#294f7c"/>
  <path d="M296 122c43 20 58 74 36 120-16-30-40-54-72-70Z" fill="#d8bd72"/>
  <path d="M182 206c31 11 65 5 96-17" fill="none" stroke="#5a4034" stroke-width="8" stroke-linecap="round"/>
  <circle cx="273" cy="295" r="18" fill="#f0e7d1"/>
  <path d="M171 314c60 44 121 38 165-1v107H111c14-42 31-76 60-106Z" fill="#2f3e4f"/>
  <path d="M184 177c20-11 38-11 55 0" fill="none" stroke="#332921" stroke-width="6" stroke-linecap="round"/>
</svg>
