<svg xmlns="http://www.w3.org/2000/svg" viewBox="0 0 640 450">
  <defs>
    <linearGradient id="sky" x1="0" y1="0" x2="1" y2="1">
      <stop offset="0" stop-color="#17376e"/>
      <stop offset="0.55" stop-color="#23558f"/>
      <stop offset="1" stop-color="#11285a"/>
    </linearGradient>
    <filter id="soft">
      <feGaussianBlur stdDeviation="1.6"/>
    </filter>
  </defs>
  <rect width="640" height="450" fill="url(#sky)"/>
  <g fill="none" stroke-linecap="round" opacity=".9">
    <path d="M25 102c95-50 170 8 257-20 86-28 132-77 266-28" stroke="#e0cd73" stroke-width="11"/>
    <path d="M38 150c124-64 208 22 317-31 80-39 150-57 249-5" stroke="#a9c3a3" stroke-width="8"/>
    <path d="M50 224c74-35 143-33 213 8 102 60 199-86 332-34" stroke="#e8dc94" stroke-width="7"/>
    <path d="M211 155c35-47 110-39 129 9 20 49-50 96-103 65-50-29-37-70-26-74Z" stroke="#f0d56f" stroke-width="9"/>
    <path d="M233 169c24-22 70-17 80 15 9 27-29 53-61 37-31-15-31-36-19-52Z" stroke="#355e92" stroke-width="8"/>
  </g>
  <g fill="#f2d46f" filter="url(#soft)">
    <circle cx="70" cy="68" r="18"/>
    <circle cx="168" cy="97" r="12"/>
    <circle cx="423" cy="70" r="16"/>
    <circle cx="551" cy="95" r="36"/>
    <circle cx="500" cy="180" r="15"/>
    <circle cx="368" cy="136" r="10"/>
  </g>
  <path d="M0 382c96-64 164-32 236-66 80-38 178-8 230-44 48-34 116-37 174 0v178H0Z" fill="#26335a"/>
  <path d="M78 448c-18-112 10-196 47-269 30 76 45 156 58 269Z" fill="#0b1c2a"/>
  <path d="M97 448c-8-86 14-160 35-217 18 57 30 126 38 217Z" fill="#173323"/>
  <g fill="#f4c96c" opacity=".8">
    <rect x="394" y="330" width="22" height="18"/>
    <rect x="426" y="310" width="18" height="25"/>
    <rect x="462" y="334" width="30" height="16"/>
  </g>
</svg>
