<svg xmlns="http://www.w3.org/2000/svg" width="1200" height="900" viewBox="0 0 1200 900" role="img" aria-labelledby="title desc">
  <title id="title">Generated-style dashboard visual</title>
  <desc id="desc">Abstract local visual asset used to demonstrate TypeScript imports from src/assets/generated.</desc>
  <rect width="1200" height="900" fill="#eef7f3"/>
  <circle cx="1020" cy="130" r="120" fill="#f5c542" opacity=".88"/>
  <path d="M130 720C250 560 410 510 610 570s330 30 450-120v330H130z" fill="#0f766e" opacity=".18"/>
  <rect x="160" y="150" width="880" height="570" rx="34" fill="#ffffff" stroke="#124e4a" stroke-width="8"/>
  <rect x="210" y="205" width="210" height="110" rx="20" fill="#d9f4ec"/>
  <rect x="455" y="205" width="210" height="110" rx="20" fill="#f9e8a8"/>
  <rect x="700" y="205" width="290" height="110" rx="20" fill="#dbeafe"/>
  <rect x="210" y="365" width="340" height="270" rx="24" fill="#f5f1e8"/>
  <rect x="590" y="365" width="400" height="270" rx="24" fill="#eff6ff"/>
  <path d="M245 585c42-95 86-90 128-33s85 60 134-75" fill="none" stroke="#0f766e" stroke-width="18" stroke-linecap="round"/>
  <path d="M635 575V455M715 575V420M795 575v-80M875 575V455M955 575V405" stroke="#2563eb" stroke-width="26" stroke-linecap="round"/>
  <g fill="#124e4a">
    <circle cx="255" cy="258" r="18"/>
    <circle cx="500" cy="258" r="18"/>
    <circle cx="748" cy="258" r="18"/>
  </g>
</svg>
